<?xml version="1.0" standalone="no"?>
<!DOCTYPE svg PUBLIC "-//W3C//DTD SVG 20010904//EN"
 "http://www.w3.org/TR/2001/REC-SVG-20010904/DTD/svg10.dtd">
<svg version="1.0" xmlns="http://www.w3.org/2000/svg"
 width="640.000000pt" height="64.000000pt" viewBox="0 0 640.000000 64.000000"
 preserveAspectRatio="xMidYMid meet">

<g transform="translate(0.000000,64.000000) scale(0.100000,-0.100000)"
fill="#01AFB2" stroke="none">
<path d="M2614 531 c-30 -14 -47 -30 -63 -63 -23 -49 -28 -120 -8 -136 7 -6
110 -10 259 -10 200 0 250 3 259 14 17 20 6 110 -18 142 -47 62 -61 67 -231
70 -137 2 -162 0 -198 -17z m159 -36 c-3 -8 -9 -15 -14 -15 -10 0 -12 24 -3
33 11 11 24 -3 17 -18z m-113 -24 c0 -5 -7 -14 -15 -21 -12 -10 -15 -10 -15 2
0 8 3 18 7 21 9 10 23 9 23 -2z m245 -14 c11 -9 14 -16 8 -20 -6 -4 -22 2 -34
13 -18 14 -20 19 -8 20 8 0 23 -6 34 -13z m145 -87 c0 -26 -25 -36 -47 -19
-13 11 -17 11 -20 2 -3 -7 -13 -13 -23 -13 -10 0 -20 6 -23 13 -3 9 -8 9 -21
-2 -15 -12 -21 -13 -38 -2 -17 11 -22 10 -29 -1 -7 -11 -12 -11 -29 0 -17 11
-25 11 -37 1 -11 -10 -19 -10 -33 -2 -13 9 -20 9 -29 0 -9 -9 -16 -8 -31 1
-16 10 -24 10 -40 0 -17 -11 -22 -10 -30 1 -7 12 -11 12 -24 2 -21 -17 -46 -7
-46 19 0 20 5 20 250 20 245 0 250 0 250 -20z"/>
<path d="M1028 533 c-16 -4 -18 -23 -18 -213 0 -235 2 -240 70 -240 66 0 70 5
70 79 l0 66 68 -73 c61 -65 71 -72 105 -72 38 0 87 34 87 61 0 7 -32 45 -71
86 l-71 73 61 65 c49 53 61 72 61 98 0 46 -19 67 -66 74 -39 5 -40 4 -104 -73
l-65 -79 -5 68 c-3 45 -10 71 -20 77 -15 10 -71 11 -102 3z"/>
<path d="M3686 519 c-14 -11 -26 -27 -26 -36 0 -8 25 -50 54 -92 l55 -78 -55
-72 c-76 -101 -71 -148 18 -158 l46 -5 42 62 42 62 35 -52 c42 -62 70 -77 121
-64 26 6 39 16 46 35 8 23 2 37 -48 108 l-57 81 51 62 c28 35 53 73 57 86 9
38 -12 70 -51 77 -51 10 -70 0 -110 -61 l-37 -56 -31 49 c-16 26 -37 54 -46
61 -24 18 -76 14 -106 -9z"/>
<path d="M4230 527 l-45 -12 -3 -202 c-3 -227 -1 -233 68 -233 65 0 70 5 70
75 l0 62 65 5 c115 10 170 66 162 166 -7 98 -65 141 -195 148 -43 2 -97 -2
-122 -9z m148 -103 c44 -31 16 -104 -40 -104 -15 0 -18 9 -18 53 0 71 13 83
58 51z"/>
<path d="M4712 530 c-23 -5 -47 -12 -52 -15 -6 -4 -10 -87 -10 -210 0 -228 -1
-225 74 -225 62 0 66 5 66 81 0 38 4 69 9 69 5 0 28 -29 50 -65 22 -35 50 -69
60 -75 42 -22 101 -8 121 29 8 16 1 30 -35 77 -44 56 -44 58 -25 71 51 36 67
139 30 198 -11 18 -37 41 -56 50 -43 20 -169 28 -232 15z m132 -102 c33 -15
42 -43 22 -73 -11 -17 -26 -25 -46 -25 -29 0 -30 1 -30 48 0 65 7 72 54 50z"/>
<path d="M5677 526 c-72 -27 -102 -73 -94 -145 6 -58 40 -89 136 -125 52 -20
71 -33 71 -46 0 -36 -59 -40 -126 -8 l-46 23 -19 -24 c-35 -42 -21 -89 33
-112 48 -20 194 -18 235 4 53 28 73 63 73 124 0 82 -34 111 -197 168 -22 8
-14 34 12 41 14 3 39 3 55 0 17 -3 43 -9 58 -12 56 -11 71 61 21 98 -34 26
-159 34 -212 14z"/>
<path d="M6127 526 c-72 -27 -102 -73 -94 -145 6 -58 40 -89 136 -125 52 -20
71 -33 71 -46 0 -36 -59 -40 -126 -8 l-46 23 -19 -24 c-35 -42 -21 -89 33
-112 48 -20 194 -18 235 4 53 28 73 63 73 124 0 82 -34 111 -197 168 -22 8
-14 34 12 41 14 3 39 3 55 0 17 -3 43 -9 58 -12 56 -11 71 61 21 98 -34 26
-159 34 -212 14z"/>
<path d="M46 514 c-17 -16 -19 -35 -10 -71 6 -20 13 -22 90 -25 l84 -3 -71
-85 c-92 -110 -109 -138 -109 -178 0 -71 2 -72 183 -72 175 0 187 3 187 51 0
56 -5 59 -103 59 l-91 0 26 28 c14 15 55 64 91 110 58 71 67 88 67 123 0 79
-1 79 -175 79 -126 0 -156 -3 -169 -16z"/>
<path d="M632 524 c-29 -7 -40 -30 -101 -216 -59 -181 -63 -214 -25 -228 30
-12 84 -13 100 -2 6 4 15 25 20 47 l10 40 59 0 59 0 9 -38 c5 -21 18 -42 30
-48 22 -12 103 -7 118 8 13 13 -96 392 -120 416 -19 19 -111 31 -159 21z m89
-224 c4 -25 -17 -38 -46 -26 -11 4 -11 14 3 57 l17 51 11 -28 c7 -16 14 -40
15 -54z"/>
<path d="M1642 524 c-29 -7 -40 -30 -101 -216 -59 -181 -63 -214 -25 -228 30
-12 84 -13 100 -2 6 4 15 25 20 47 l10 40 59 0 59 0 9 -38 c5 -21 18 -42 30
-48 22 -12 103 -7 118 8 13 13 -96 392 -120 416 -19 19 -111 31 -159 21z m89
-224 c4 -25 -17 -38 -46 -26 -11 4 -11 14 3 57 l17 51 11 -28 c7 -16 14 -40
15 -54z"/>
<path d="M2026 514 c-17 -16 -19 -35 -10 -71 6 -20 13 -22 90 -25 l84 -3 -71
-85 c-92 -110 -109 -138 -109 -178 0 -71 2 -72 183 -72 175 0 187 3 187 51 0
56 -5 59 -103 59 l-91 0 26 28 c14 15 55 64 91 110 58 71 67 88 67 123 0 79
-1 79 -175 79 -126 0 -156 -3 -169 -16z"/>
<path d="M3246 504 c-13 -13 -16 -46 -16 -204 0 -235 -12 -220 175 -220 71 0
135 4 141 8 17 11 25 41 18 68 -6 23 -9 24 -100 24 l-94 0 0 40 0 39 83 3 82
3 0 45 0 45 -82 3 -83 3 0 29 0 30 83 0 c95 0 107 7 107 62 l0 38 -149 0
c-123 0 -152 -3 -165 -16z"/>
<path d="M5166 504 c-13 -13 -16 -46 -16 -204 0 -235 -12 -220 175 -220 71 0
135 4 141 8 17 11 25 41 18 68 -6 23 -9 24 -100 24 l-94 0 0 40 0 39 83 3 82
3 0 45 0 45 -82 3 -83 3 0 29 0 30 83 0 c95 0 107 7 107 62 l0 38 -149 0
c-123 0 -152 -3 -165 -16z"/>
<path d="M2514 285 c-4 -8 -4 -22 0 -30 4 -13 38 -15 215 -15 l210 0 3 -37 c3
-33 6 -38 28 -38 22 0 25 5 28 37 3 36 4 37 50 40 43 3 47 5 47 28 l0 25 -288
3 c-249 2 -288 0 -293 -13z"/>
<path d="M2535 210 c-4 -6 3 -31 16 -56 35 -74 74 -86 264 -82 137 3 157 5
181 24 57 42 88 114 53 122 -11 2 -18 -6 -22 -27 -4 -17 -18 -38 -32 -47 -23
-15 -27 -15 -50 0 -17 11 -25 26 -25 46 l0 30 -189 0 c-119 0 -192 -4 -196
-10z m348 -35 c-3 -8 -12 -15 -19 -15 -12 0 -12 4 -4 20 12 23 32 18 23 -5z
m-219 -10 c23 -17 13 -34 -11 -19 -19 12 -29 34 -16 34 4 0 17 -7 27 -15z
m131 -45 c-9 -14 -25 5 -25 30 0 12 3 12 16 -2 9 -9 13 -21 9 -28z"/>
</g>
</svg>
